<svg xmlns="http://www.w3.org/2000/svg" xmlns:xlink="http://www.w3.org/1999/xlink" width="1920" zoomAndPan="magnify" viewBox="0 0 1440 809.999993" height="1080" preserveAspectRatio="xMidYMid meet" version="1.0"><defs><g/></defs><g fill="#ffffff" fill-opacity="1"><g transform="translate(118.534457, 559.661908)"><g><path d="M 48.859375 -23.890625 L 13.625 -23.890625 C 13.84375 -17.660156 15.335938 -13.085938 18.109375 -10.171875 C 20.878906 -7.265625 24.679688 -5.8125 29.515625 -5.8125 C 33.179688 -5.8125 36.128906 -6.460938 38.359375 -7.765625 C 40.585938 -9.066406 42.335938 -11.113281 43.609375 -13.90625 L 44.59375 -13.90625 L 49.515625 -10.96875 C 48.023438 -7.25 45.644531 -4.328125 42.375 -2.203125 C 39.101562 -0.0859375 34.816406 0.96875 29.515625 0.96875 C 24.554688 0.96875 20.296875 -0.00390625 16.734375 -1.953125 C 13.171875 -3.898438 10.425781 -6.859375 8.5 -10.828125 C 6.582031 -14.796875 5.625 -19.726562 5.625 -25.625 C 5.625 -31.445312 6.640625 -36.359375 8.671875 -40.359375 C 10.703125 -44.359375 13.472656 -47.34375 16.984375 -49.3125 C 20.503906 -51.28125 24.53125 -52.265625 29.0625 -52.265625 C 35.632812 -52.265625 40.765625 -50.410156 44.453125 -46.703125 C 48.140625 -42.992188 50 -37.5 50.03125 -30.21875 C 50.03125 -27.363281 49.96875 -25.441406 49.84375 -24.453125 Z M 42.546875 -30.21875 C 42.421875 -35.675781 41.207031 -39.644531 38.90625 -42.125 C 36.613281 -44.601562 33.332031 -45.84375 29.0625 -45.84375 C 24.5625 -45.84375 21.03125 -44.59375 18.46875 -42.09375 C 15.914062 -39.601562 14.363281 -35.644531 13.8125 -30.21875 Z M 42.546875 -30.21875 "/></g></g></g><g fill="#ffffff" fill-opacity="1"><g transform="translate(180.253619, 559.661908)"><g><path d="M 11.4375 0 L 11.4375 -45.09375 L 2.515625 -45.09375 L 2.515625 -51.328125 L 11.4375 -51.328125 C 10.875 -53.554688 10.59375 -55.679688 10.59375 -57.703125 C 10.59375 -61.015625 11.296875 -63.8125 12.703125 -66.09375 C 14.117188 -68.375 16.082031 -70.070312 18.59375 -71.1875 C 21.101562 -72.300781 24.003906 -72.859375 27.296875 -72.859375 C 32.410156 -72.859375 36.328125 -71.753906 39.046875 -69.546875 L 36.125 -64.203125 L 35.15625 -64.015625 C 33.132812 -65.628906 30.515625 -66.4375 27.296875 -66.4375 C 24.285156 -66.4375 22.007812 -65.660156 20.46875 -64.109375 C 18.9375 -62.566406 18.171875 -60.367188 18.171875 -57.515625 C 18.171875 -55.742188 18.453125 -53.679688 19.015625 -51.328125 L 35.328125 -51.328125 L 35.328125 -45.09375 L 19.015625 -45.09375 L 19.015625 0 Z M 11.4375 0 "/></g></g></g><g fill="#ffffff" fill-opacity="1"><g transform="translate(223.841755, 559.661908)"><g><path d="M 11.4375 0 L 11.4375 -45.09375 L 2.515625 -45.09375 L 2.515625 -51.328125 L 11.4375 -51.328125 C 10.875 -53.554688 10.59375 -55.679688 10.59375 -57.703125 C 10.59375 -61.015625 11.296875 -63.8125 12.703125 -66.09375 C 14.117188 -68.375 16.082031 -70.070312 18.59375 -71.1875 C 21.101562 -72.300781 24.003906 -72.859375 27.296875 -72.859375 C 32.410156 -72.859375 36.328125 -71.753906 39.046875 -69.546875 L 36.125 -64.203125 L 35.15625 -64.015625 C 33.132812 -65.628906 30.515625 -66.4375 27.296875 -66.4375 C 24.285156 -66.4375 22.007812 -65.660156 20.46875 -64.109375 C 18.9375 -62.566406 18.171875 -60.367188 18.171875 -57.515625 C 18.171875 -55.742188 18.453125 -53.679688 19.015625 -51.328125 L 35.328125 -51.328125 L 35.328125 -45.09375 L 19.015625 -45.09375 L 19.015625 0 Z M 11.4375 0 "/></g></g></g><g fill="#ffffff" fill-opacity="1"><g transform="translate(267.429897, 559.661908)"><g><path d="M 29.4375 0.96875 C 24.59375 0.96875 20.378906 -0.0507812 16.796875 -2.09375 C 13.222656 -4.132812 10.46875 -7.144531 8.53125 -11.125 C 6.59375 -15.113281 5.625 -19.945312 5.625 -25.625 C 5.625 -31.289062 6.59375 -36.125 8.53125 -40.125 C 10.46875 -44.125 13.222656 -47.144531 16.796875 -49.1875 C 20.378906 -51.238281 24.59375 -52.265625 29.4375 -52.265625 C 34.269531 -52.265625 38.472656 -51.238281 42.046875 -49.1875 C 45.628906 -47.144531 48.390625 -44.125 50.328125 -40.125 C 52.265625 -36.125 53.234375 -31.289062 53.234375 -25.625 C 53.234375 -19.945312 52.265625 -15.113281 50.328125 -11.125 C 48.390625 -7.144531 45.628906 -4.132812 42.046875 -2.09375 C 38.472656 -0.0507812 34.269531 0.96875 29.4375 0.96875 Z M 29.4375 -5.8125 C 34.550781 -5.8125 38.460938 -7.421875 41.171875 -10.640625 C 43.878906 -13.867188 45.234375 -18.863281 45.234375 -25.625 C 45.234375 -32.40625 43.878906 -37.40625 41.171875 -40.625 C 38.460938 -43.851562 34.550781 -45.46875 29.4375 -45.46875 C 24.320312 -45.46875 20.398438 -43.847656 17.671875 -40.609375 C 14.941406 -37.367188 13.578125 -32.375 13.578125 -25.625 C 13.578125 -18.863281 14.941406 -13.867188 17.671875 -10.640625 C 20.398438 -7.421875 24.320312 -5.8125 29.4375 -5.8125 Z M 29.4375 -5.8125 "/></g></g></g><g fill="#ffffff" fill-opacity="1"><g transform="translate(333.333135, 559.661908)"><g><path d="M 8.921875 0 L 8.921875 -51.28125 L 16.140625 -51.28125 L 16.140625 -43.234375 L 17.109375 -43 C 19.492188 -48.832031 23.988281 -51.75 30.59375 -51.75 C 34.09375 -51.75 36.710938 -51.113281 38.453125 -49.84375 L 36.5 -43.421875 L 35.5625 -43.234375 C 33.644531 -44.203125 31.539062 -44.6875 29.25 -44.6875 C 25.15625 -44.6875 22.003906 -43.148438 19.796875 -40.078125 C 17.597656 -37.003906 16.5 -32.03125 16.5 -25.15625 L 16.5 0 Z M 8.921875 0 "/></g></g></g><g fill="#ffffff" fill-opacity="1"><g transform="translate(379.989593, 559.661908)"><g><path d="M 34.6875 -8.140625 L 37.109375 -2.703125 C 35.890625 -1.492188 34.296875 -0.582031 32.328125 0.03125 C 30.367188 0.65625 28.238281 0.96875 25.9375 0.96875 C 16.144531 0.96875 11.25 -3.988281 11.25 -13.90625 L 11.25 -45.09375 L 2.328125 -45.09375 L 2.328125 -51.328125 L 11.25 -51.328125 L 11.25 -62.15625 L 18.828125 -63.421875 L 18.828125 -51.328125 L 35.328125 -51.328125 L 35.328125 -45.09375 L 18.828125 -45.09375 L 18.828125 -14.640625 C 18.828125 -8.753906 21.382812 -5.8125 26.5 -5.8125 C 29.289062 -5.8125 31.691406 -6.585938 33.703125 -8.140625 Z M 34.6875 -8.140625 "/></g></g></g><g fill="#ffffff" fill-opacity="1"><g transform="translate(426.088174, 559.661908)"><g><path d="M 20.40625 0.96875 C 16.78125 0.96875 13.925781 -0.0546875 11.84375 -2.109375 C 9.769531 -4.171875 8.734375 -7.25 8.734375 -11.34375 L 8.734375 -71.875 L 16.3125 -71.875 L 16.3125 -11.859375 C 16.3125 -9.710938 16.722656 -8.164062 17.546875 -7.21875 C 18.367188 -6.28125 19.648438 -5.8125 21.390625 -5.8125 C 22.441406 -5.8125 23.507812 -5.984375 24.59375 -6.328125 L 25.25 -6.140625 L 26.125 -0.1875 C 25.570312 0.1875 24.773438 0.472656 23.734375 0.671875 C 22.691406 0.867188 21.582031 0.96875 20.40625 0.96875 Z M 20.40625 0.96875 "/></g></g></g><g fill="#ffffff" fill-opacity="1"><g transform="translate(461.0292, 559.661908)"><g><path d="M 48.859375 -23.890625 L 13.625 -23.890625 C 13.84375 -17.660156 15.335938 -13.085938 18.109375 -10.171875 C 20.878906 -7.265625 24.679688 -5.8125 29.515625 -5.8125 C 33.179688 -5.8125 36.128906 -6.460938 38.359375 -7.765625 C 40.585938 -9.066406 42.335938 -11.113281 43.609375 -13.90625 L 44.59375 -13.90625 L 49.515625 -10.96875 C 48.023438 -7.25 45.644531 -4.328125 42.375 -2.203125 C 39.101562 -0.0859375 34.816406 0.96875 29.515625 0.96875 C 24.554688 0.96875 20.296875 -0.00390625 16.734375 -1.953125 C 13.171875 -3.898438 10.425781 -6.859375 8.5 -10.828125 C 6.582031 -14.796875 5.625 -19.726562 5.625 -25.625 C 5.625 -31.445312 6.640625 -36.359375 8.671875 -40.359375 C 10.703125 -44.359375 13.472656 -47.34375 16.984375 -49.3125 C 20.503906 -51.28125 24.53125 -52.265625 29.0625 -52.265625 C 35.632812 -52.265625 40.765625 -50.410156 44.453125 -46.703125 C 48.140625 -42.992188 50 -37.5 50.03125 -30.21875 C 50.03125 -27.363281 49.96875 -25.441406 49.84375 -24.453125 Z M 42.546875 -30.21875 C 42.421875 -35.675781 41.207031 -39.644531 38.90625 -42.125 C 36.613281 -44.601562 33.332031 -45.84375 29.0625 -45.84375 C 24.5625 -45.84375 21.03125 -44.59375 18.46875 -42.09375 C 15.914062 -39.601562 14.363281 -35.644531 13.8125 -30.21875 Z M 42.546875 -30.21875 "/></g></g></g><g fill="#ffffff" fill-opacity="1"><g transform="translate(522.748379, 559.661908)"><g><path d="M 23.390625 0.96875 C 20.160156 0.96875 17.175781 0.546875 14.4375 -0.296875 C 11.695312 -1.148438 9.378906 -2.320312 7.484375 -3.8125 C 5.597656 -5.300781 4.265625 -6.972656 3.484375 -8.828125 L 7.953125 -13.484375 L 8.921875 -13.484375 C 10.597656 -10.941406 12.613281 -9.023438 14.96875 -7.734375 C 17.320312 -6.453125 20.128906 -5.8125 23.390625 -5.8125 C 27.171875 -5.8125 30.046875 -6.546875 32.015625 -8.015625 C 33.984375 -9.492188 34.96875 -11.550781 34.96875 -14.1875 C 34.96875 -16.195312 34.367188 -17.859375 33.171875 -19.171875 C 31.984375 -20.492188 30.054688 -21.476562 27.390625 -22.125 L 18.734375 -24.265625 C 14.117188 -25.378906 10.75 -27.144531 8.625 -29.5625 C 6.5 -31.988281 5.4375 -34.984375 5.4375 -38.546875 C 5.4375 -41.335938 6.148438 -43.757812 7.578125 -45.8125 C 9.003906 -47.875 11.054688 -49.460938 13.734375 -50.578125 C 16.421875 -51.703125 19.609375 -52.265625 23.296875 -52.265625 C 28.003906 -52.265625 31.710938 -51.601562 34.421875 -50.28125 C 37.140625 -48.96875 39.257812 -47.128906 40.78125 -44.765625 L 36.5 -40.59375 L 35.5625 -40.59375 C 33.925781 -42.476562 32.140625 -43.835938 30.203125 -44.671875 C 28.265625 -45.515625 25.960938 -45.9375 23.296875 -45.9375 C 19.910156 -45.9375 17.316406 -45.332031 15.515625 -44.125 C 13.722656 -42.914062 12.828125 -41.164062 12.828125 -38.875 C 12.828125 -36.789062 13.460938 -35.113281 14.734375 -33.84375 C 16.003906 -32.570312 18.222656 -31.550781 21.390625 -30.78125 L 29.890625 -28.734375 C 34.359375 -27.679688 37.582031 -25.929688 39.5625 -23.484375 C 41.550781 -21.035156 42.546875 -17.96875 42.546875 -14.28125 C 42.546875 -11.269531 41.832031 -8.613281 40.40625 -6.3125 C 38.976562 -4.019531 36.820312 -2.234375 33.9375 -0.953125 C 31.050781 0.328125 27.535156 0.96875 23.390625 0.96875 Z M 23.390625 0.96875 "/></g></g></g><g fill="#ffffff" fill-opacity="1"><g transform="translate(577.215146, 559.661908)"><g><path d="M 23.390625 0.96875 C 20.160156 0.96875 17.175781 0.546875 14.4375 -0.296875 C 11.695312 -1.148438 9.378906 -2.320312 7.484375 -3.8125 C 5.597656 -5.300781 4.265625 -6.972656 3.484375 -8.828125 L 7.953125 -13.484375 L 8.921875 -13.484375 C 10.597656 -10.941406 12.613281 -9.023438 14.96875 -7.734375 C 17.320312 -6.453125 20.128906 -5.8125 23.390625 -5.8125 C 27.171875 -5.8125 30.046875 -6.546875 32.015625 -8.015625 C 33.984375 -9.492188 34.96875 -11.550781 34.96875 -14.1875 C 34.96875 -16.195312 34.367188 -17.859375 33.171875 -19.171875 C 31.984375 -20.492188 30.054688 -21.476562 27.390625 -22.125 L 18.734375 -24.265625 C 14.117188 -25.378906 10.75 -27.144531 8.625 -29.5625 C 6.5 -31.988281 5.4375 -34.984375 5.4375 -38.546875 C 5.4375 -41.335938 6.148438 -43.757812 7.578125 -45.8125 C 9.003906 -47.875 11.054688 -49.460938 13.734375 -50.578125 C 16.421875 -51.703125 19.609375 -52.265625 23.296875 -52.265625 C 28.003906 -52.265625 31.710938 -51.601562 34.421875 -50.28125 C 37.140625 -48.96875 39.257812 -47.128906 40.78125 -44.765625 L 36.5 -40.59375 L 35.5625 -40.59375 C 33.925781 -42.476562 32.140625 -43.835938 30.203125 -44.671875 C 28.265625 -45.515625 25.960938 -45.9375 23.296875 -45.9375 C 19.910156 -45.9375 17.316406 -45.332031 15.515625 -44.125 C 13.722656 -42.914062 12.828125 -41.164062 12.828125 -38.875 C 12.828125 -36.789062 13.460938 -35.113281 14.734375 -33.84375 C 16.003906 -32.570312 18.222656 -31.550781 21.390625 -30.78125 L 29.890625 -28.734375 C 34.359375 -27.679688 37.582031 -25.929688 39.5625 -23.484375 C 41.550781 -21.035156 42.546875 -17.96875 42.546875 -14.28125 C 42.546875 -11.269531 41.832031 -8.613281 40.40625 -6.3125 C 38.976562 -4.019531 36.820312 -2.234375 33.9375 -0.953125 C 31.050781 0.328125 27.535156 0.96875 23.390625 0.96875 Z M 23.390625 0.96875 "/></g></g></g><g fill="#ffffff" fill-opacity="1"><g transform="translate(631.684794, 559.661908)"><g/></g></g><g fill="#ffffff" fill-opacity="1"><g transform="translate(662.069827, 559.661908)"><g/></g></g><g fill="#ffffff" fill-opacity="1"><g transform="translate(692.472764, 559.661908)"><g><path d="M 48.859375 -23.890625 L 13.625 -23.890625 C 13.84375 -17.660156 15.335938 -13.085938 18.109375 -10.171875 C 20.878906 -7.265625 24.679688 -5.8125 29.515625 -5.8125 C 33.179688 -5.8125 36.128906 -6.460938 38.359375 -7.765625 C 40.585938 -9.066406 42.335938 -11.113281 43.609375 -13.90625 L 44.59375 -13.90625 L 49.515625 -10.96875 C 48.023438 -7.25 45.644531 -4.328125 42.375 -2.203125 C 39.101562 -0.0859375 34.816406 0.96875 29.515625 0.96875 C 24.554688 0.96875 20.296875 -0.00390625 16.734375 -1.953125 C 13.171875 -3.898438 10.425781 -6.859375 8.5 -10.828125 C 6.582031 -14.796875 5.625 -19.726562 5.625 -25.625 C 5.625 -31.445312 6.640625 -36.359375 8.671875 -40.359375 C 10.703125 -44.359375 13.472656 -47.34375 16.984375 -49.3125 C 20.503906 -51.28125 24.53125 -52.265625 29.0625 -52.265625 C 35.632812 -52.265625 40.765625 -50.410156 44.453125 -46.703125 C 48.140625 -42.992188 50 -37.5 50.03125 -30.21875 C 50.03125 -27.363281 49.96875 -25.441406 49.84375 -24.453125 Z M 42.546875 -30.21875 C 42.421875 -35.675781 41.207031 -39.644531 38.90625 -42.125 C 36.613281 -44.601562 33.332031 -45.84375 29.0625 -45.84375 C 24.5625 -45.84375 21.03125 -44.59375 18.46875 -42.09375 C 15.914062 -39.601562 14.363281 -35.644531 13.8125 -30.21875 Z M 42.546875 -30.21875 "/></g></g></g><g fill="#ffffff" fill-opacity="1"><g transform="translate(754.191926, 559.661908)"><g><path d="M 31.296875 -29.609375 L 4.828125 -29.609375 L 4.828125 -36.40625 L 31.296875 -36.40625 Z M 31.296875 -29.609375 "/></g></g></g><g fill="#ffffff" fill-opacity="1"><g transform="translate(797.315164, 559.661908)"><g><path d="M 29.4375 0.96875 C 24.90625 0.96875 20.84375 -0.0546875 17.25 -2.109375 C 13.65625 -4.171875 10.816406 -7.207031 8.734375 -11.21875 C 6.660156 -15.238281 5.625 -20.039062 5.625 -25.625 C 5.625 -31.226562 6.660156 -36.035156 8.734375 -40.046875 C 10.816406 -44.066406 13.65625 -47.109375 17.25 -49.171875 C 20.84375 -51.234375 24.90625 -52.265625 29.4375 -52.265625 C 34.851562 -52.265625 39.164062 -51.238281 42.375 -49.1875 C 45.582031 -47.144531 47.898438 -44.414062 49.328125 -41 L 44.171875 -37.28125 L 43.234375 -37.28125 C 41.835938 -40.101562 40.046875 -42.171875 37.859375 -43.484375 C 35.679688 -44.804688 32.875 -45.46875 29.4375 -45.46875 C 26.269531 -45.46875 23.492188 -44.722656 21.109375 -43.234375 C 18.722656 -41.742188 16.867188 -39.507812 15.546875 -36.53125 C 14.234375 -33.5625 13.578125 -29.925781 13.578125 -25.625 C 13.578125 -21.34375 14.242188 -17.722656 15.578125 -14.765625 C 16.910156 -11.804688 18.757812 -9.570312 21.125 -8.0625 C 23.5 -6.5625 26.269531 -5.8125 29.4375 -5.8125 C 33 -5.8125 35.945312 -6.613281 38.28125 -8.21875 C 40.625 -9.832031 42.460938 -12.378906 43.796875 -15.859375 L 44.765625 -15.859375 L 49.75 -12.921875 C 48.414062 -8.617188 46.035156 -5.226562 42.609375 -2.75 C 39.179688 -0.269531 34.789062 0.96875 29.4375 0.96875 Z M 29.4375 0.96875 "/></g></g></g><g fill="#ffffff" fill-opacity="1"><g transform="translate(857.221229, 559.661908)"><g><path d="M 29.4375 0.96875 C 24.59375 0.96875 20.378906 -0.0507812 16.796875 -2.09375 C 13.222656 -4.132812 10.46875 -7.144531 8.53125 -11.125 C 6.59375 -15.113281 5.625 -19.945312 5.625 -25.625 C 5.625 -31.289062 6.59375 -36.125 8.53125 -40.125 C 10.46875 -44.125 13.222656 -47.144531 16.796875 -49.1875 C 20.378906 -51.238281 24.59375 -52.265625 29.4375 -52.265625 C 34.269531 -52.265625 38.472656 -51.238281 42.046875 -49.1875 C 45.628906 -47.144531 48.390625 -44.125 50.328125 -40.125 C 52.265625 -36.125 53.234375 -31.289062 53.234375 -25.625 C 53.234375 -19.945312 52.265625 -15.113281 50.328125 -11.125 C 48.390625 -7.144531 45.628906 -4.132812 42.046875 -2.09375 C 38.472656 -0.0507812 34.269531 0.96875 29.4375 0.96875 Z M 29.4375 -5.8125 C 34.550781 -5.8125 38.460938 -7.421875 41.171875 -10.640625 C 43.878906 -13.867188 45.234375 -18.863281 45.234375 -25.625 C 45.234375 -32.40625 43.878906 -37.40625 41.171875 -40.625 C 38.460938 -43.851562 34.550781 -45.46875 29.4375 -45.46875 C 24.320312 -45.46875 20.398438 -43.847656 17.671875 -40.609375 C 14.941406 -37.367188 13.578125 -32.375 13.578125 -25.625 C 13.578125 -18.863281 14.941406 -13.867188 17.671875 -10.640625 C 20.398438 -7.421875 24.320312 -5.8125 29.4375 -5.8125 Z M 29.4375 -5.8125 "/></g></g></g><g fill="#ffffff" fill-opacity="1"><g transform="translate(923.124467, 559.661908)"><g><path d="M 8.921875 0 L 8.921875 -51.28125 L 16.140625 -51.28125 L 16.140625 -43.703125 L 17.109375 -43.515625 C 18.847656 -46.398438 20.945312 -48.578125 23.40625 -50.046875 C 25.875 -51.523438 28.828125 -52.265625 32.265625 -52.265625 C 36.234375 -52.265625 39.300781 -51.507812 41.46875 -50 C 43.644531 -48.5 45.335938 -46.078125 46.546875 -42.734375 L 47.515625 -42.734375 C 49.285156 -45.859375 51.460938 -48.226562 54.046875 -49.84375 C 56.640625 -51.457031 59.828125 -52.265625 63.609375 -52.265625 C 68.867188 -52.265625 72.789062 -50.835938 75.375 -47.984375 C 77.96875 -45.128906 79.265625 -40.789062 79.265625 -34.96875 L 79.265625 0 L 71.6875 0 L 71.6875 -34.78125 C 71.6875 -38.5 70.90625 -41.238281 69.34375 -43 C 67.78125 -44.769531 65.265625 -45.65625 61.796875 -45.65625 C 57.703125 -45.65625 54.359375 -44.164062 51.765625 -41.1875 C 49.179688 -38.21875 47.890625 -33.320312 47.890625 -26.5 L 47.890625 0 L 40.3125 0 L 40.3125 -34.78125 C 40.3125 -38.5 39.523438 -41.238281 37.953125 -43 C 36.390625 -44.769531 33.875 -45.65625 30.40625 -45.65625 C 26.3125 -45.65625 22.96875 -44.210938 20.375 -41.328125 C 17.789062 -38.453125 16.5 -33.773438 16.5 -27.296875 L 16.5 0 Z M 8.921875 0 "/></g></g></g><g fill="#ffffff" fill-opacity="1"><g transform="translate(1017.57245, 559.661908)"><g><path d="M 8.921875 0 L 8.921875 -51.28125 L 16.140625 -51.28125 L 16.140625 -43.703125 L 17.109375 -43.515625 C 18.847656 -46.398438 20.945312 -48.578125 23.40625 -50.046875 C 25.875 -51.523438 28.828125 -52.265625 32.265625 -52.265625 C 36.234375 -52.265625 39.300781 -51.507812 41.46875 -50 C 43.644531 -48.5 45.335938 -46.078125 46.546875 -42.734375 L 47.515625 -42.734375 C 49.285156 -45.859375 51.460938 -48.226562 54.046875 -49.84375 C 56.640625 -51.457031 59.828125 -52.265625 63.609375 -52.265625 C 68.867188 -52.265625 72.789062 -50.835938 75.375 -47.984375 C 77.96875 -45.128906 79.265625 -40.789062 79.265625 -34.96875 L 79.265625 0 L 71.6875 0 L 71.6875 -34.78125 C 71.6875 -38.5 70.90625 -41.238281 69.34375 -43 C 67.78125 -44.769531 65.265625 -45.65625 61.796875 -45.65625 C 57.703125 -45.65625 54.359375 -44.164062 51.765625 -41.1875 C 49.179688 -38.21875 47.890625 -33.320312 47.890625 -26.5 L 47.890625 0 L 40.3125 0 L 40.3125 -34.78125 C 40.3125 -38.5 39.523438 -41.238281 37.953125 -43 C 36.390625 -44.769531 33.875 -45.65625 30.40625 -45.65625 C 26.3125 -45.65625 22.96875 -44.210938 20.375 -41.328125 C 17.789062 -38.453125 16.5 -33.773438 16.5 -27.296875 L 16.5 0 Z M 8.921875 0 "/></g></g></g><g fill="#ffffff" fill-opacity="1"><g transform="translate(1112.020453, 559.661908)"><g><path d="M 48.859375 -23.890625 L 13.625 -23.890625 C 13.84375 -17.660156 15.335938 -13.085938 18.109375 -10.171875 C 20.878906 -7.265625 24.679688 -5.8125 29.515625 -5.8125 C 33.179688 -5.8125 36.128906 -6.460938 38.359375 -7.765625 C 40.585938 -9.066406 42.335938 -11.113281 43.609375 -13.90625 L 44.59375 -13.90625 L 49.515625 -10.96875 C 48.023438 -7.25 45.644531 -4.328125 42.375 -2.203125 C 39.101562 -0.0859375 34.816406 0.96875 29.515625 0.96875 C 24.554688 0.96875 20.296875 -0.00390625 16.734375 -1.953125 C 13.171875 -3.898438 10.425781 -6.859375 8.5 -10.828125 C 6.582031 -14.796875 5.625 -19.726562 5.625 -25.625 C 5.625 -31.445312 6.640625 -36.359375 8.671875 -40.359375 C 10.703125 -44.359375 13.472656 -47.34375 16.984375 -49.3125 C 20.503906 -51.28125 24.53125 -52.265625 29.0625 -52.265625 C 35.632812 -52.265625 40.765625 -50.410156 44.453125 -46.703125 C 48.140625 -42.992188 50 -37.5 50.03125 -30.21875 C 50.03125 -27.363281 49.96875 -25.441406 49.84375 -24.453125 Z M 42.546875 -30.21875 C 42.421875 -35.675781 41.207031 -39.644531 38.90625 -42.125 C 36.613281 -44.601562 33.332031 -45.84375 29.0625 -45.84375 C 24.5625 -45.84375 21.03125 -44.59375 18.46875 -42.09375 C 15.914062 -39.601562 14.363281 -35.644531 13.8125 -30.21875 Z M 42.546875 -30.21875 "/></g></g></g><g fill="#ffffff" fill-opacity="1"><g transform="translate(1173.739632, 559.661908)"><g><path d="M 8.921875 0 L 8.921875 -51.28125 L 16.140625 -51.28125 L 16.140625 -43.234375 L 17.109375 -43 C 19.492188 -48.832031 23.988281 -51.75 30.59375 -51.75 C 34.09375 -51.75 36.710938 -51.113281 38.453125 -49.84375 L 36.5 -43.421875 L 35.5625 -43.234375 C 33.644531 -44.203125 31.539062 -44.6875 29.25 -44.6875 C 25.15625 -44.6875 22.003906 -43.148438 19.796875 -40.078125 C 17.597656 -37.003906 16.5 -32.03125 16.5 -25.15625 L 16.5 0 Z M 8.921875 0 "/></g></g></g><g fill="#ffffff" fill-opacity="1"><g transform="translate(1220.396111, 559.661908)"><g><path d="M 29.4375 0.96875 C 24.90625 0.96875 20.84375 -0.0546875 17.25 -2.109375 C 13.65625 -4.171875 10.816406 -7.207031 8.734375 -11.21875 C 6.660156 -15.238281 5.625 -20.039062 5.625 -25.625 C 5.625 -31.226562 6.660156 -36.035156 8.734375 -40.046875 C 10.816406 -44.066406 13.65625 -47.109375 17.25 -49.171875 C 20.84375 -51.234375 24.90625 -52.265625 29.4375 -52.265625 C 34.851562 -52.265625 39.164062 -51.238281 42.375 -49.1875 C 45.582031 -47.144531 47.898438 -44.414062 49.328125 -41 L 44.171875 -37.28125 L 43.234375 -37.28125 C 41.835938 -40.101562 40.046875 -42.171875 37.859375 -43.484375 C 35.679688 -44.804688 32.875 -45.46875 29.4375 -45.46875 C 26.269531 -45.46875 23.492188 -44.722656 21.109375 -43.234375 C 18.722656 -41.742188 16.867188 -39.507812 15.546875 -36.53125 C 14.234375 -33.5625 13.578125 -29.925781 13.578125 -25.625 C 13.578125 -21.34375 14.242188 -17.722656 15.578125 -14.765625 C 16.910156 -11.804688 18.757812 -9.570312 21.125 -8.0625 C 23.5 -6.5625 26.269531 -5.8125 29.4375 -5.8125 C 33 -5.8125 35.945312 -6.613281 38.28125 -8.21875 C 40.625 -9.832031 42.460938 -12.378906 43.796875 -15.859375 L 44.765625 -15.859375 L 49.75 -12.921875 C 48.414062 -8.617188 46.035156 -5.226562 42.609375 -2.75 C 39.179688 -0.269531 34.789062 0.96875 29.4375 0.96875 Z M 29.4375 0.96875 "/></g></g></g><g fill="#ffffff" fill-opacity="1"><g transform="translate(1280.302187, 559.661908)"><g><path d="M 48.859375 -23.890625 L 13.625 -23.890625 C 13.84375 -17.660156 15.335938 -13.085938 18.109375 -10.171875 C 20.878906 -7.265625 24.679688 -5.8125 29.515625 -5.8125 C 33.179688 -5.8125 36.128906 -6.460938 38.359375 -7.765625 C 40.585938 -9.066406 42.335938 -11.113281 43.609375 -13.90625 L 44.59375 -13.90625 L 49.515625 -10.96875 C 48.023438 -7.25 45.644531 -4.328125 42.375 -2.203125 C 39.101562 -0.0859375 34.816406 0.96875 29.515625 0.96875 C 24.554688 0.96875 20.296875 -0.00390625 16.734375 -1.953125 C 13.171875 -3.898438 10.425781 -6.859375 8.5 -10.828125 C 6.582031 -14.796875 5.625 -19.726562 5.625 -25.625 C 5.625 -31.445312 6.640625 -36.359375 8.671875 -40.359375 C 10.703125 -44.359375 13.472656 -47.34375 16.984375 -49.3125 C 20.503906 -51.28125 24.53125 -52.265625 29.0625 -52.265625 C 35.632812 -52.265625 40.765625 -50.410156 44.453125 -46.703125 C 48.140625 -42.992188 50 -37.5 50.03125 -30.21875 C 50.03125 -27.363281 49.96875 -25.441406 49.84375 -24.453125 Z M 42.546875 -30.21875 C 42.421875 -35.675781 41.207031 -39.644531 38.90625 -42.125 C 36.613281 -44.601562 33.332031 -45.84375 29.0625 -45.84375 C 24.5625 -45.84375 21.03125 -44.59375 18.46875 -42.09375 C 15.914062 -39.601562 14.363281 -35.644531 13.8125 -30.21875 Z M 42.546875 -30.21875 "/></g></g></g><g fill="#ffffff" fill-opacity="1"><g transform="translate(1342.045657, 559.661908)"><g/></g></g><g fill="#ffffff" fill-opacity="1"><g transform="translate(103.07833, 447.363361)"><g><path d="M 130.1875 -162.390625 L 130.1875 -135.40625 L 83.3125 -135.40625 L 83.3125 0 L 51.3125 0 L 51.3125 -135.40625 L 4.4375 -135.40625 L 4.4375 -162.390625 Z M 130.1875 -162.390625 "/></g></g></g><g fill="#ffffff" fill-opacity="1"><g transform="translate(254.532651, 447.363361)"><g><path d="M 71.203125 2.328125 C 59.203125 2.328125 48.664062 -0.128906 39.59375 -5.046875 C 30.519531 -9.972656 23.484375 -17.191406 18.484375 -26.703125 C 13.492188 -36.222656 11 -47.722656 11 -61.203125 C 11 -74.679688 13.492188 -86.195312 18.484375 -95.75 C 23.484375 -105.300781 30.519531 -112.535156 39.59375 -117.453125 C 48.664062 -122.378906 59.203125 -124.84375 71.203125 -124.84375 C 83.191406 -124.84375 93.722656 -122.378906 102.796875 -117.453125 C 111.867188 -112.535156 118.921875 -105.300781 123.953125 -95.75 C 128.992188 -86.195312 131.515625 -74.679688 131.515625 -61.203125 C 131.515625 -47.722656 128.992188 -36.222656 123.953125 -26.703125 C 118.921875 -17.191406 111.867188 -9.972656 102.796875 -5.046875 C 93.722656 -0.128906 83.191406 2.328125 71.203125 2.328125 Z M 71.203125 -23.765625 C 90.234375 -23.765625 99.75 -36.242188 99.75 -61.203125 C 99.75 -74.160156 97.300781 -83.65625 92.40625 -89.6875 C 87.519531 -95.726562 80.453125 -98.75 71.203125 -98.75 C 52.171875 -98.75 42.65625 -86.234375 42.65625 -61.203125 C 42.65625 -36.242188 52.171875 -23.765625 71.203125 -23.765625 Z M 71.203125 -23.765625 "/></g></g></g><g fill="#ffffff" fill-opacity="1"><g transform="translate(413.76192, 447.363361)"><g><path d="M 57.3125 2.328125 C 48.945312 2.328125 41.28125 1.347656 34.3125 -0.609375 C 27.351562 -2.566406 21.410156 -5.269531 16.484375 -8.71875 C 11.566406 -12.164062 7.921875 -16.109375 5.546875 -20.546875 L 22.65625 -38.984375 L 24.984375 -38.984375 C 29.054688 -33.503906 33.867188 -29.394531 39.421875 -26.65625 C 44.984375 -23.914062 51.019531 -22.546875 57.53125 -22.546875 C 63.53125 -22.546875 68.046875 -23.617188 71.078125 -25.765625 C 74.117188 -27.910156 75.640625 -30.984375 75.640625 -34.984375 C 75.640625 -38.097656 74.546875 -40.707031 72.359375 -42.8125 C 70.179688 -44.925781 66.648438 -46.578125 61.765625 -47.765625 L 45.546875 -51.65625 C 33.398438 -54.539062 24.53125 -58.960938 18.9375 -64.921875 C 13.34375 -70.878906 10.546875 -78.453125 10.546875 -87.640625 C 10.546875 -95.265625 12.488281 -101.890625 16.375 -107.515625 C 20.269531 -113.148438 25.753906 -117.445312 32.828125 -120.40625 C 39.898438 -123.363281 48.132812 -124.84375 57.53125 -124.84375 C 68.570312 -124.84375 77.71875 -123.25 84.96875 -120.0625 C 92.226562 -116.882812 97.894531 -112.628906 101.96875 -107.296875 L 85.53125 -89.53125 L 83.3125 -89.53125 C 79.90625 -93.375 76.070312 -96.1875 71.8125 -97.96875 C 67.550781 -99.75 62.789062 -100.640625 57.53125 -100.640625 C 45.394531 -100.640625 39.328125 -96.863281 39.328125 -89.3125 C 39.328125 -86.125 40.453125 -83.53125 42.703125 -81.53125 C 44.960938 -79.53125 48.945312 -77.898438 54.65625 -76.640625 L 69.75 -73.3125 C 82.195312 -70.644531 91.289062 -66.367188 97.03125 -60.484375 C 102.769531 -54.597656 105.640625 -46.691406 105.640625 -36.765625 C 105.640625 -28.992188 103.710938 -22.144531 99.859375 -16.21875 C 96.003906 -10.289062 90.445312 -5.71875 83.1875 -2.5 C 75.9375 0.71875 67.3125 2.328125 57.3125 2.328125 Z M 57.3125 2.328125 "/></g></g></g><g fill="#ffffff" fill-opacity="1"><g transform="translate(543.557469, 447.363361)"><g><path d="M 57.3125 2.328125 C 48.945312 2.328125 41.28125 1.347656 34.3125 -0.609375 C 27.351562 -2.566406 21.410156 -5.269531 16.484375 -8.71875 C 11.566406 -12.164062 7.921875 -16.109375 5.546875 -20.546875 L 22.65625 -38.984375 L 24.984375 -38.984375 C 29.054688 -33.503906 33.867188 -29.394531 39.421875 -26.65625 C 44.984375 -23.914062 51.019531 -22.546875 57.53125 -22.546875 C 63.53125 -22.546875 68.046875 -23.617188 71.078125 -25.765625 C 74.117188 -27.910156 75.640625 -30.984375 75.640625 -34.984375 C 75.640625 -38.097656 74.546875 -40.707031 72.359375 -42.8125 C 70.179688 -44.925781 66.648438 -46.578125 61.765625 -47.765625 L 45.546875 -51.65625 C 33.398438 -54.539062 24.53125 -58.960938 18.9375 -64.921875 C 13.34375 -70.878906 10.546875 -78.453125 10.546875 -87.640625 C 10.546875 -95.265625 12.488281 -101.890625 16.375 -107.515625 C 20.269531 -113.148438 25.753906 -117.445312 32.828125 -120.40625 C 39.898438 -123.363281 48.132812 -124.84375 57.53125 -124.84375 C 68.570312 -124.84375 77.71875 -123.25 84.96875 -120.0625 C 92.226562 -116.882812 97.894531 -112.628906 101.96875 -107.296875 L 85.53125 -89.53125 L 83.3125 -89.53125 C 79.90625 -93.375 76.070312 -96.1875 71.8125 -97.96875 C 67.550781 -99.75 62.789062 -100.640625 57.53125 -100.640625 C 45.394531 -100.640625 39.328125 -96.863281 39.328125 -89.3125 C 39.328125 -86.125 40.453125 -83.53125 42.703125 -81.53125 C 44.960938 -79.53125 48.945312 -77.898438 54.65625 -76.640625 L 69.75 -73.3125 C 82.195312 -70.644531 91.289062 -66.367188 97.03125 -60.484375 C 102.769531 -54.597656 105.640625 -46.691406 105.640625 -36.765625 C 105.640625 -28.992188 103.710938 -22.144531 99.859375 -16.21875 C 96.003906 -10.289062 90.445312 -5.71875 83.1875 -2.5 C 75.9375 0.71875 67.3125 2.328125 57.3125 2.328125 Z M 57.3125 2.328125 "/></g></g></g><g fill="#ffffff" fill-opacity="1"><g transform="translate(673.35299, 447.363361)"><g><path d="M 60.53125 2.328125 C 50.832031 2.328125 42.257812 -0.0195312 34.8125 -4.71875 C 27.375 -9.425781 21.546875 -16.535156 17.328125 -26.046875 C 13.109375 -35.566406 11 -47.285156 11 -61.203125 C 11 -75.203125 13.164062 -86.957031 17.5 -96.46875 C 21.832031 -105.988281 27.828125 -113.097656 35.484375 -117.796875 C 43.148438 -122.492188 52.019531 -124.84375 62.09375 -124.84375 C 69.71875 -124.84375 76.328125 -123.53125 81.921875 -120.90625 C 87.515625 -118.28125 92.234375 -114.1875 96.078125 -108.625 L 98.40625 -109.1875 L 98.40625 -171.71875 L 129.1875 -171.71875 L 129.1875 0 L 98.40625 0 L 98.40625 -15.890625 L 96.078125 -16.328125 C 92.671875 -10.554688 88.003906 -6.003906 82.078125 -2.671875 C 76.160156 0.660156 68.976562 2.328125 60.53125 2.328125 Z M 70.53125 -23.765625 C 79.195312 -23.765625 86.046875 -26.851562 91.078125 -33.03125 C 96.117188 -39.21875 98.640625 -48.609375 98.640625 -61.203125 C 98.640625 -73.796875 96.117188 -83.203125 91.078125 -89.421875 C 86.046875 -95.640625 79.195312 -98.75 70.53125 -98.75 C 61.5 -98.75 54.59375 -95.726562 49.8125 -89.6875 C 45.039062 -83.65625 42.65625 -74.160156 42.65625 -61.203125 C 42.65625 -48.316406 45.039062 -38.851562 49.8125 -32.8125 C 54.59375 -26.78125 61.5 -23.765625 70.53125 -23.765625 Z M 70.53125 -23.765625 "/></g></g></g><g fill="#ffffff" fill-opacity="1"><g transform="translate(837.025073, 447.363361)"><g><path d="M 71.203125 2.328125 C 59.203125 2.328125 48.664062 -0.128906 39.59375 -5.046875 C 30.519531 -9.972656 23.484375 -17.191406 18.484375 -26.703125 C 13.492188 -36.222656 11 -47.722656 11 -61.203125 C 11 -74.679688 13.492188 -86.195312 18.484375 -95.75 C 23.484375 -105.300781 30.519531 -112.535156 39.59375 -117.453125 C 48.664062 -122.378906 59.203125 -124.84375 71.203125 -124.84375 C 83.191406 -124.84375 93.722656 -122.378906 102.796875 -117.453125 C 111.867188 -112.535156 118.921875 -105.300781 123.953125 -95.75 C 128.992188 -86.195312 131.515625 -74.679688 131.515625 -61.203125 C 131.515625 -47.722656 128.992188 -36.222656 123.953125 -26.703125 C 118.921875 -17.191406 111.867188 -9.972656 102.796875 -5.046875 C 93.722656 -0.128906 83.191406 2.328125 71.203125 2.328125 Z M 71.203125 -23.765625 C 90.234375 -23.765625 99.75 -36.242188 99.75 -61.203125 C 99.75 -74.160156 97.300781 -83.65625 92.40625 -89.6875 C 87.519531 -95.726562 80.453125 -98.75 71.203125 -98.75 C 52.171875 -98.75 42.65625 -86.234375 42.65625 -61.203125 C 42.65625 -36.242188 52.171875 -23.765625 71.203125 -23.765625 Z M 71.203125 -23.765625 "/></g></g></g><g fill="#ffffff" fill-opacity="1"><g transform="translate(996.254382, 447.363361)"><g><path d="M 65.75 0 L 33.546875 0 L 4.4375 -122.515625 L 32.984375 -122.515625 L 50.984375 -39.65625 L 53.3125 -39.65625 L 76.640625 -122.515625 L 103.296875 -122.515625 L 127.40625 -39.65625 L 129.734375 -39.65625 L 147.0625 -122.515625 L 174.828125 -122.515625 L 146.0625 0 L 113.75 0 L 90.53125 -83.421875 L 88.1875 -83.421875 Z M 65.75 0 "/></g></g></g><g fill="#ffffff" fill-opacity="1"><g transform="translate(1192.248091, 447.363361)"><g><path d="M 17.65625 0 L 17.65625 -122.515625 L 47.203125 -122.515625 L 47.203125 -104.515625 L 49.546875 -103.96875 C 57.171875 -117.882812 69.535156 -124.84375 86.640625 -124.84375 C 100.785156 -124.84375 111.171875 -120.992188 117.796875 -113.296875 C 124.421875 -105.597656 127.734375 -94.378906 127.734375 -79.640625 L 127.734375 0 L 96.96875 0 L 96.96875 -75.859375 C 96.96875 -84.003906 95.335938 -89.875 92.078125 -93.46875 C 88.816406 -97.0625 83.597656 -98.859375 76.421875 -98.859375 C 67.609375 -98.859375 60.738281 -96.003906 55.8125 -90.296875 C 50.882812 -84.597656 48.421875 -75.640625 48.421875 -63.421875 L 48.421875 0 Z M 17.65625 0 "/></g></g></g></svg>